<svg width="27" height="18" viewBox="0 0 27 18" fill="none" xmlns="http://www.w3.org/2000/svg">
<path d="M11.1562 14.4844H4.99219L3.82031 18H0.0820312L6.43359 0.9375H9.69141L16.0781 18H12.3398L11.1562 14.4844ZM5.94141 11.6367H10.207L8.0625 5.25L5.94141 11.6367ZM16.1475 11.9883V18H12.6319V0.9375H19.2881C20.5694 0.9375 21.6944 1.17188 22.6631 1.64062C23.6397 2.10938 24.3897 2.77734 24.9131 3.64453C25.4366 4.50391 25.6983 5.48438 25.6983 6.58594C25.6983 8.25781 25.1241 9.57812 23.9756 10.5469C22.835 11.5078 21.253 11.9883 19.2295 11.9883H16.1475ZM16.1475 9.14062H19.2881C20.2178 9.14062 20.9248 8.92188 21.4092 8.48438C21.9014 8.04688 22.1475 7.42188 22.1475 6.60938C22.1475 5.77344 21.9014 5.09766 21.4092 4.58203C20.917 4.06641 20.2373 3.80078 19.3702 3.78516H16.1475V9.14062Z" fill="white"/>
</svg>
