<svg width="35" height="27" viewBox="0 0 35 27" fill="none" xmlns="http://www.w3.org/2000/svg">
<path d="M16.1562 14.4844H9.99219L8.82031 18H5.08203L11.4336 0.9375H14.6914L21.0781 18H17.3398L16.1562 14.4844ZM10.9414 11.6367H15.207L13.0625 5.25L10.9414 11.6367ZM21.1475 11.9883V18H17.6319V0.9375H24.2881C25.5694 0.9375 26.6944 1.17188 27.6631 1.64062C28.6397 2.10938 29.3897 2.77734 29.9131 3.64453C30.4366 4.50391 30.6983 5.48438 30.6983 6.58594C30.6983 8.25781 30.1241 9.57812 28.9756 10.5469C27.835 11.5078 26.253 11.9883 24.2295 11.9883H21.1475ZM21.1475 9.14062H24.2881C25.2178 9.14062 25.9248 8.92188 26.4092 8.48438C26.9014 8.04688 27.1475 7.42188 27.1475 6.60938C27.1475 5.77344 26.9014 5.09766 26.4092 4.58203C25.917 4.06641 25.2373 3.80078 24.3702 3.78516H21.1475V9.14062Z" fill="white"/>
<path d="M3.66309 23.8047H1.79395L1.1582 25H0.768555L3.07422 20.7344H3.41699L4.24023 25H3.88574L3.66309 23.8047ZM1.95508 23.4971H3.60449L3.18262 21.1855L1.95508 23.4971ZM5.19238 25H4.84082L5.62305 20.5H5.97461L5.19238 25ZM6.52832 25H6.17676L6.73047 21.8301H7.0791L6.52832 25ZM6.82715 20.9131C6.83691 20.7861 6.9209 20.7061 7.0791 20.6729C7.15527 20.6865 7.20898 20.7109 7.24023 20.7461C7.27344 20.7793 7.29492 20.835 7.30469 20.9131C7.28516 20.9873 7.25684 21.042 7.21973 21.0771C7.18262 21.1104 7.12695 21.1348 7.05273 21.1504C6.89453 21.127 6.81934 21.0479 6.82715 20.9131ZM8.00488 21.7861L7.79688 21.6221C8.00391 21.3799 8.13281 21.1367 8.18359 20.8926L8.25391 20.5H8.59668L8.54395 20.834C8.4834 21.2168 8.30371 21.5342 8.00488 21.7861ZM10.2168 24.1738C10.248 23.9043 10.084 23.709 9.72461 23.5879L9.2207 23.4385C8.75781 23.2822 8.53906 23.0215 8.56445 22.6562C8.57812 22.3926 8.69922 22.1787 8.92773 22.0146C9.1582 21.8486 9.43164 21.7676 9.74805 21.7715C10.0586 21.7754 10.3105 21.8633 10.5039 22.0352C10.6973 22.2051 10.7871 22.4326 10.7734 22.7178H10.4277C10.4395 22.5283 10.3799 22.374 10.249 22.2549C10.1201 22.1357 9.94824 22.0742 9.7334 22.0703C9.51074 22.0703 9.32324 22.123 9.1709 22.2285C9.01855 22.332 8.93262 22.4697 8.91309 22.6416C8.88379 22.8936 9.03809 23.0703 9.37598 23.1719L9.74219 23.2773L9.93848 23.3447C10.3799 23.5107 10.5879 23.7812 10.5625 24.1562C10.5469 24.4102 10.4365 24.6191 10.2314 24.7832C10.0283 24.9453 9.76562 25.0361 9.44336 25.0557L9.32324 25.0586C9.11035 25.0547 8.91797 25.0137 8.74609 24.9355C8.57422 24.8555 8.44238 24.7441 8.35059 24.6016C8.25879 24.459 8.21875 24.2949 8.23047 24.1094L8.5791 24.1123C8.5791 24.3115 8.64648 24.4688 8.78125 24.584C8.91602 24.6992 9.10156 24.7588 9.33789 24.7627C9.57227 24.7627 9.77148 24.71 9.93555 24.6045C10.0996 24.4971 10.1934 24.3535 10.2168 24.1738ZM13.9668 25.0615C13.7852 25.0576 13.6133 25.0195 13.4512 24.9473C13.291 24.873 13.1611 24.7578 13.0615 24.6016L12.7686 26.2188H12.4229L13.1846 21.8301H13.5068L13.4248 22.2783C13.7002 21.9287 14.0449 21.7598 14.459 21.7715C14.7559 21.7793 14.9873 21.8896 15.1533 22.1025C15.3193 22.3154 15.4053 22.6172 15.4111 23.0078C15.4131 23.1309 15.4072 23.25 15.3936 23.3652L15.3818 23.4473C15.333 23.7891 15.2412 24.084 15.1064 24.332C14.9717 24.5801 14.8076 24.7656 14.6143 24.8887C14.4209 25.0098 14.2051 25.0674 13.9668 25.0615ZM15.0449 23.3652L15.0625 23.0869C15.0684 22.7744 15.0117 22.5293 14.8926 22.3516C14.7734 22.1738 14.5967 22.0811 14.3623 22.0732C14.1572 22.0693 13.9707 22.1201 13.8027 22.2256C13.6367 22.3291 13.4961 22.4805 13.3809 22.6797L13.1201 24.2061C13.1826 24.3857 13.2812 24.5225 13.416 24.6162C13.5527 24.71 13.7158 24.7598 13.9053 24.7656C14.1885 24.7754 14.4277 24.6699 14.623 24.4492C14.8203 24.2266 14.9531 23.917 15.0215 23.5205L15.0449 23.3652ZM15.9795 23.3857C16.0146 23.0791 16.1084 22.7988 16.2607 22.5449C16.4131 22.2891 16.6025 22.0947 16.8291 21.9619C17.0576 21.8291 17.3047 21.7656 17.5703 21.7715C17.832 21.7754 18.0547 21.8477 18.2383 21.9883C18.4238 22.127 18.5586 22.3174 18.6426 22.5596C18.7285 22.7998 18.7578 23.0664 18.7305 23.3594L18.7246 23.415C18.666 23.915 18.4883 24.3164 18.1914 24.6191C17.8965 24.9219 17.542 25.0684 17.1279 25.0586C16.7725 25.0527 16.4883 24.9219 16.2754 24.666C16.0625 24.4102 15.958 24.0723 15.9619 23.6523L15.9707 23.4854L15.9795 23.3857ZM16.3193 23.4854C16.2939 23.7178 16.3105 23.9326 16.3691 24.1299C16.4297 24.3252 16.5254 24.4785 16.6562 24.5898C16.7871 24.7012 16.9502 24.7598 17.1455 24.7656C17.3564 24.7695 17.5488 24.7158 17.7227 24.6045C17.8984 24.4932 18.043 24.3359 18.1562 24.1328C18.2695 23.9297 18.3428 23.7051 18.376 23.459L18.3848 23.3623C18.4199 22.9854 18.3613 22.6777 18.209 22.4395C18.0586 22.1992 17.8398 22.0762 17.5527 22.0703C17.2402 22.0605 16.9697 22.1816 16.7412 22.4336C16.5146 22.6836 16.376 23.0166 16.3252 23.4326L16.3193 23.4854ZM21.124 22.126C21.0479 22.1104 20.9707 22.1016 20.8926 22.0996C20.6699 22.0996 20.4658 22.168 20.2803 22.3047C20.0947 22.4395 19.9707 22.6113 19.9082 22.8203L19.5332 25H19.1875L19.7383 21.8301H20.0811L19.9756 22.334C20.0908 22.1465 20.2295 22.0039 20.3916 21.9062C20.5557 21.8086 20.7354 21.7617 20.9307 21.7656C20.999 21.7656 21.0791 21.7793 21.1709 21.8066L21.124 22.126ZM22.5479 21.0186L22.4072 21.8301H23.043L22.9932 22.1172H22.3574L22.0059 24.2324L22 24.4141C22 24.627 22.0977 24.7363 22.293 24.7422C22.3535 24.7441 22.4482 24.7373 22.5771 24.7217L22.5625 25.0088C22.4473 25.042 22.3301 25.0566 22.2109 25.0527C22.0059 25.0488 21.8564 24.9775 21.7627 24.8389C21.6689 24.6982 21.6348 24.4951 21.6602 24.2295L22.0088 22.1172H21.4404L21.4932 21.8301H22.0557L22.1992 21.0186H22.5479ZM23.4619 25L23.9629 22.1172H23.4531L23.5059 21.8301H24.0127L24.0742 21.3994C24.123 21.0889 24.2412 20.8486 24.4287 20.6787C24.6182 20.5088 24.8535 20.4258 25.1348 20.4297C25.248 20.4336 25.376 20.4531 25.5186 20.4883L25.457 20.7783C25.3477 20.749 25.2432 20.7344 25.1436 20.7344C24.9482 20.7344 24.7861 20.7979 24.6572 20.9248C24.5303 21.0518 24.4502 21.2285 24.417 21.4551L24.3613 21.8301H25.0967L25.0439 22.1172H24.3145L23.8135 25H23.4619ZM25.2607 23.3857C25.2959 23.0791 25.3896 22.7988 25.542 22.5449C25.6943 22.2891 25.8838 22.0947 26.1104 21.9619C26.3389 21.8291 26.5859 21.7656 26.8516 21.7715C27.1133 21.7754 27.3359 21.8477 27.5195 21.9883C27.7051 22.127 27.8398 22.3174 27.9238 22.5596C28.0098 22.7998 28.0391 23.0664 28.0117 23.3594L28.0059 23.415C27.9473 23.915 27.7695 24.3164 27.4727 24.6191C27.1777 24.9219 26.8232 25.0684 26.4092 25.0586C26.0537 25.0527 25.7695 24.9219 25.5566 24.666C25.3438 24.4102 25.2393 24.0723 25.2432 23.6523L25.252 23.4854L25.2607 23.3857ZM25.6006 23.4854C25.5752 23.7178 25.5918 23.9326 25.6504 24.1299C25.7109 24.3252 25.8066 24.4785 25.9375 24.5898C26.0684 24.7012 26.2314 24.7598 26.4268 24.7656C26.6377 24.7695 26.8301 24.7158 27.0039 24.6045C27.1797 24.4932 27.3242 24.3359 27.4375 24.1328C27.5508 23.9297 27.624 23.7051 27.6572 23.459L27.666 23.3623C27.7012 22.9854 27.6426 22.6777 27.4902 22.4395C27.3398 22.1992 27.1211 22.0762 26.834 22.0703C26.5215 22.0605 26.251 22.1816 26.0225 22.4336C25.7959 22.6836 25.6572 23.0166 25.6064 23.4326L25.6006 23.4854ZM28.8584 25H28.5068L29.2891 20.5H29.6406L28.8584 25ZM30.1943 25H29.8428L30.3965 21.8301H30.7451L30.1943 25ZM30.4932 20.9131C30.5029 20.7861 30.5869 20.7061 30.7451 20.6729C30.8213 20.6865 30.875 20.7109 30.9062 20.7461C30.9395 20.7793 30.9609 20.835 30.9707 20.9131C30.9512 20.9873 30.9229 21.042 30.8857 21.0771C30.8486 21.1104 30.793 21.1348 30.7188 21.1504C30.5605 21.127 30.4854 21.0479 30.4932 20.9131ZM31.2256 23.3857C31.2607 23.0791 31.3545 22.7988 31.5068 22.5449C31.6592 22.2891 31.8486 22.0947 32.0752 21.9619C32.3037 21.8291 32.5508 21.7656 32.8164 21.7715C33.0781 21.7754 33.3008 21.8477 33.4844 21.9883C33.6699 22.127 33.8047 22.3174 33.8887 22.5596C33.9746 22.7998 34.0039 23.0664 33.9766 23.3594L33.9707 23.415C33.9121 23.915 33.7344 24.3164 33.4375 24.6191C33.1426 24.9219 32.7881 25.0684 32.374 25.0586C32.0186 25.0527 31.7344 24.9219 31.5215 24.666C31.3086 24.4102 31.2041 24.0723 31.208 23.6523L31.2168 23.4854L31.2256 23.3857ZM31.5654 23.4854C31.54 23.7178 31.5566 23.9326 31.6152 24.1299C31.6758 24.3252 31.7715 24.4785 31.9023 24.5898C32.0332 24.7012 32.1963 24.7598 32.3916 24.7656C32.6025 24.7695 32.7949 24.7158 32.9688 24.6045C33.1445 24.4932 33.2891 24.3359 33.4023 24.1328C33.5156 23.9297 33.5889 23.7051 33.6221 23.459L33.6309 23.3623C33.666 22.9854 33.6074 22.6777 33.4551 22.4395C33.3047 22.1992 33.0859 22.0762 32.7988 22.0703C32.4863 22.0605 32.2158 22.1816 31.9873 22.4336C31.7607 22.6836 31.6221 23.0166 31.5713 23.4326L31.5654 23.4854Z" fill="white"/>
</svg>
