<svg width="43" height="50" viewBox="0 0 43 50" fill="none" xmlns="http://www.w3.org/2000/svg">
<path d="M1.932 41.654C2.268 40.31 2.688 38.812 3.192 37.16C3.696 35.508 4.298 33.548 4.998 31.28C5.726 28.984 6.566 26.268 7.518 23.132C8.47 19.996 9.576 16.286 10.836 12.002C10.892 11.862 10.948 11.624 11.004 11.288C11.088 10.924 11.13 10.588 11.13 10.28C11.13 10 11.074 9.776 10.962 9.608C10.878 9.412 10.724 9.314 10.5 9.314C9.828 9.314 9.184 9.58 8.568 10.112C7.98 10.616 7.462 11.26 7.014 12.044C6.594 12.828 6.258 13.654 6.006 14.522C5.754 15.362 5.628 16.118 5.628 16.79C5.628 17.35 5.698 17.84 5.838 18.26C4.914 18.26 4.256 18.036 3.864 17.588C3.5 17.112 3.318 16.538 3.318 15.866C3.318 14.914 3.598 13.962 4.158 13.01C4.718 12.058 5.432 11.19 6.3 10.406C7.168 9.594 8.078 8.95 9.03 8.474C10.01 7.998 10.906 7.76 11.718 7.76C12.558 7.76 13.244 8.124 13.776 8.852C14.336 9.552 14.784 10.532 15.12 11.792C15.456 13.024 15.736 14.424 15.96 15.992C16.184 17.56 16.394 19.184 16.59 20.864C16.814 22.712 17.038 24.546 17.262 26.366C17.486 28.186 17.696 29.852 17.892 31.364C18.116 32.848 18.298 34.052 18.438 34.976C18.634 33.66 18.914 32.176 19.278 30.524C19.67 28.844 20.09 27.108 20.538 25.316C21.014 23.496 21.504 21.732 22.008 20.024C22.512 18.288 22.974 16.706 23.394 15.278C23.842 13.822 24.22 12.618 24.528 11.666C24.864 10.686 25.088 10.07 25.2 9.818C25.34 9.454 25.662 9.02 26.166 8.516C26.67 8.012 27.23 7.76 27.846 7.76C27.37 9.048 26.824 10.63 26.208 12.506C25.62 14.354 25.018 16.37 24.402 18.554C23.786 20.71 23.184 22.922 22.596 25.19C22.008 27.43 21.476 29.6 21 31.7C20.552 33.8 20.188 35.718 19.908 37.454C19.656 39.162 19.516 40.562 19.488 41.654C18.62 41.654 17.906 41.402 17.346 40.898C16.814 40.394 16.436 39.512 16.212 38.252C16.044 37.356 15.82 36.096 15.54 34.472C15.288 32.848 15.008 31.056 14.7 29.096C14.42 27.108 14.126 25.106 13.818 23.09C13.51 21.046 13.23 19.17 12.978 17.462C12.726 15.726 12.53 14.326 12.39 13.262C11.046 18.106 9.898 22.208 8.946 25.568C7.994 28.9 7.182 31.63 6.51 33.758C5.866 35.858 5.292 37.482 4.788 38.63C4.284 39.778 3.808 40.562 3.36 40.982C2.912 41.43 2.436 41.654 1.932 41.654Z" fill="white"/>
<path d="M28.526 41.654C27.014 41.654 25.586 41.374 24.242 40.814C22.898 40.282 21.806 39.456 20.966 38.336C20.154 37.216 19.748 35.816 19.748 34.136C19.748 32.68 20.028 31.546 20.588 30.734C21.176 29.922 21.89 29.348 22.73 29.012C23.57 28.676 24.368 28.508 25.124 28.508C24.368 29.32 23.794 30.216 23.402 31.196C23.01 32.176 22.814 33.156 22.814 34.136C22.814 35.172 23.038 36.138 23.486 37.034C23.962 37.93 24.676 38.644 25.628 39.176C26.58 39.736 27.784 40.016 29.24 40.016C30.5 40.016 31.732 39.778 32.936 39.302C34.14 38.854 35.12 38.182 35.876 37.286C36.66 36.362 37.052 35.228 37.052 33.884C37.052 32.68 36.744 31.644 36.128 30.776C35.512 29.908 34.714 29.138 33.734 28.466C32.782 27.794 31.76 27.15 30.668 26.534C29.576 25.918 28.54 25.274 27.56 24.602C26.608 23.902 25.824 23.104 25.208 22.208C24.592 21.312 24.284 20.234 24.284 18.974C24.284 17.798 24.564 16.566 25.124 15.278C25.684 13.99 26.482 12.772 27.518 11.624C28.582 10.476 29.842 9.552 31.298 8.852C32.782 8.124 34.434 7.76 36.254 7.76C37.906 7.76 39.054 8.166 39.698 8.978C40.342 9.762 40.664 10.756 40.664 11.96C40.664 12.968 40.482 14.06 40.118 15.236C39.782 16.384 39.362 17.49 38.858 18.554C38.354 19.59 37.878 20.472 37.43 21.2C36.926 21.088 36.562 20.878 36.338 20.57C36.142 20.234 36.044 19.842 36.044 19.394C36.044 18.806 36.17 18.134 36.422 17.378C36.674 16.622 36.954 15.838 37.262 15.026C37.598 14.214 37.892 13.43 38.144 12.674C38.396 11.89 38.522 11.19 38.522 10.574C38.522 10.014 38.354 9.58 38.018 9.272C37.682 8.936 37.066 8.768 36.17 8.768C34.854 8.768 33.636 9.076 32.516 9.692C31.396 10.308 30.416 11.106 29.576 12.086C28.736 13.038 28.078 14.046 27.602 15.11C27.154 16.174 26.93 17.14 26.93 18.008C26.93 19.044 27.224 19.94 27.812 20.696C28.428 21.424 29.212 22.096 30.164 22.712C31.116 23.3 32.124 23.902 33.188 24.518C34.28 25.106 35.302 25.764 36.254 26.492C37.206 27.22 37.976 28.088 38.564 29.096C39.18 30.076 39.488 31.28 39.488 32.708C39.488 34.164 39.166 35.452 38.522 36.572C37.878 37.664 37.01 38.588 35.918 39.344C34.854 40.1 33.678 40.674 32.39 41.066C31.102 41.458 29.814 41.654 28.526 41.654Z" fill="white"/>
</svg>
